<svg xmlns="http://www.w3.org/2000/svg" version="1.1" xmlns:xlink="http://www.w3.org/1999/xlink" xmlns:svgjs="http://svgjs.dev/svgjs" width="1440" height="560" preserveAspectRatio="none" viewBox="0 0 1440 560"><g mask="url(&quot;#SvgjsMask1161&quot;)" fill="none"><rect width="1440" height="560" x="0" y="0" fill="rgba(19, 21, 19, 1)"></rect><path d="M1240 199L1239 -9" stroke-width="8" stroke="url(&quot;#SvgjsLinearGradient1162&quot;)" stroke-linecap="round" class="Down"></path><path d="M625 440L624 844" stroke-width="6" stroke="url(&quot;#SvgjsLinearGradient1163&quot;)" stroke-linecap="round" class="Up"></path><path d="M132 66L131 440" stroke-width="8" stroke="url(&quot;#SvgjsLinearGradient1164&quot;)" stroke-linecap="round" class="Down"></path><path d="M175 187L174 538" stroke-width="8" stroke="url(&quot;#SvgjsLinearGradient1163&quot;)" stroke-linecap="round" class="Up"></path><path d="M607 155L606 15" stroke-width="6" stroke="url(&quot;#SvgjsLinearGradient1162&quot;)" stroke-linecap="round" class="Down"></path><path d="M330 18L329 -171" stroke-width="10" stroke="url(&quot;#SvgjsLinearGradient1165&quot;)" stroke-linecap="round" class="Down"></path><path d="M1341 206L1340 3" stroke-width="6" stroke="url(&quot;#SvgjsLinearGradient1166&quot;)" stroke-linecap="round" class="Up"></path><path d="M227 542L226 840" stroke-width="8" stroke="url(&quot;#SvgjsLinearGradient1167&quot;)" stroke-linecap="round" class="Down"></path><path d="M1011 146L1010 -108" stroke-width="6" stroke="url(&quot;#SvgjsLinearGradient1166&quot;)" stroke-linecap="round" class="Up"></path><path d="M814 219L813 -199" stroke-width="8" stroke="url(&quot;#SvgjsLinearGradient1168&quot;)" stroke-linecap="round" class="Up"></path><path d="M176 425L175 605" stroke-width="10" stroke="url(&quot;#SvgjsLinearGradient1163&quot;)" stroke-linecap="round" class="Up"></path><path d="M228 152L227 395" stroke-width="8" stroke="url(&quot;#SvgjsLinearGradient1169&quot;)" stroke-linecap="round" class="Up"></path><path d="M1365 464L1364 866" stroke-width="6" stroke="url(&quot;#SvgjsLinearGradient1168&quot;)" stroke-linecap="round" class="Up"></path><path d="M1434 221L1433 485" stroke-width="8" stroke="url(&quot;#SvgjsLinearGradient1164&quot;)" stroke-linecap="round" class="Down"></path><path d="M1358 546L1357 324" stroke-width="6" stroke="url(&quot;#SvgjsLinearGradient1163&quot;)" stroke-linecap="round" class="Up"></path><path d="M1162 137L1161 277" stroke-width="10" stroke="url(&quot;#SvgjsLinearGradient1169&quot;)" stroke-linecap="round" class="Up"></path><path d="M958 20L957 305" stroke-width="6" stroke="url(&quot;#SvgjsLinearGradient1167&quot;)" stroke-linecap="round" class="Down"></path><path d="M1119 228L1118 24" stroke-width="8" stroke="url(&quot;#SvgjsLinearGradient1169&quot;)" stroke-linecap="round" class="Up"></path><path d="M811 249L810 -143" stroke-width="10" stroke="url(&quot;#SvgjsLinearGradient1167&quot;)" stroke-linecap="round" class="Down"></path><path d="M508 365L507 -51" stroke-width="8" stroke="url(&quot;#SvgjsLinearGradient1168&quot;)" stroke-linecap="round" class="Up"></path><path d="M230 292L229 488" stroke-width="8" stroke="url(&quot;#SvgjsLinearGradient1169&quot;)" stroke-linecap="round" class="Up"></path><path d="M271 364L270 504" stroke-width="6" stroke="url(&quot;#SvgjsLinearGradient1163&quot;)" stroke-linecap="round" class="Up"></path><path d="M936 204L935 490" stroke-width="8" stroke="url(&quot;#SvgjsLinearGradient1168&quot;)" stroke-linecap="round" class="Up"></path><path d="M1245 362L1244 719" stroke-width="10" stroke="url(&quot;#SvgjsLinearGradient1168&quot;)" stroke-linecap="round" class="Up"></path><path d="M935 478L934 864" stroke-width="10" stroke="url(&quot;#SvgjsLinearGradient1163&quot;)" stroke-linecap="round" class="Up"></path><path d="M1120 471L1119 249" stroke-width="10" stroke="url(&quot;#SvgjsLinearGradient1168&quot;)" stroke-linecap="round" class="Up"></path><path d="M777 154L776 -155" stroke-width="6" stroke="url(&quot;#SvgjsLinearGradient1165&quot;)" stroke-linecap="round" class="Down"></path><path d="M415 97L414 -155" stroke-width="8" stroke="url(&quot;#SvgjsLinearGradient1165&quot;)" stroke-linecap="round" class="Down"></path><path d="M906 183L905 461" stroke-width="10" stroke="url(&quot;#SvgjsLinearGradient1167&quot;)" stroke-linecap="round" class="Down"></path><path d="M277 540L276 215" stroke-width="6" stroke="url(&quot;#SvgjsLinearGradient1166&quot;)" stroke-linecap="round" class="Up"></path><path d="M382 59L381 -185" stroke-width="8" stroke="url(&quot;#SvgjsLinearGradient1162&quot;)" stroke-linecap="round" class="Down"></path><path d="M257 162L256 -135" stroke-width="8" stroke="url(&quot;#SvgjsLinearGradient1167&quot;)" stroke-linecap="round" class="Down"></path><path d="M538 94L537 422" stroke-width="8" stroke="url(&quot;#SvgjsLinearGradient1169&quot;)" stroke-linecap="round" class="Up"></path><path d="M291 458L290 256" stroke-width="6" stroke="url(&quot;#SvgjsLinearGradient1167&quot;)" stroke-linecap="round" class="Down"></path><path d="M1035 211L1034 34" stroke-width="8" stroke="url(&quot;#SvgjsLinearGradient1162&quot;)" stroke-linecap="round" class="Down"></path><path d="M365 226L364 -35" stroke-width="6" stroke="url(&quot;#SvgjsLinearGradient1166&quot;)" stroke-linecap="round" class="Up"></path></g><defs><mask id="SvgjsMask1161"><rect width="1440" height="560" fill="#ffffff"></rect></mask><linearGradient x1="0%" y1="0%" x2="0%" y2="100%" id="SvgjsLinearGradient1162"><stop stop-color="rgba(22, 67, 88, 0)" offset="0"></stop><stop stop-color="rgba(22, 67, 88, 1)" offset="1"></stop></linearGradient><linearGradient x1="0%" y1="100%" x2="0%" y2="0%" id="SvgjsLinearGradient1163"><stop stop-color="rgba(4, 4, 4, 0)" offset="0"></stop><stop stop-color="rgba(4, 4, 4, 1)" offset="1"></stop></linearGradient><linearGradient x1="0%" y1="0%" x2="0%" y2="100%" id="SvgjsLinearGradient1164"><stop stop-color="rgba(8, 80, 114, 0)" offset="0"></stop><stop stop-color="rgba(8, 80, 114, 1)" offset="1"></stop></linearGradient><linearGradient x1="0%" y1="0%" x2="0%" y2="100%" id="SvgjsLinearGradient1165"><stop stop-color="rgba(4, 4, 4, 0)" offset="0"></stop><stop stop-color="rgba(4, 4, 4, 1)" offset="1"></stop></linearGradient><linearGradient x1="0%" y1="100%" x2="0%" y2="0%" id="SvgjsLinearGradient1166"><stop stop-color="rgba(8, 80, 114, 0)" offset="0"></stop><stop stop-color="rgba(8, 80, 114, 1)" offset="1"></stop></linearGradient><linearGradient x1="0%" y1="0%" x2="0%" y2="100%" id="SvgjsLinearGradient1167"><stop stop-color="rgba(0, 0, 0, 0)" offset="0"></stop><stop stop-color="rgba(0, 0, 0, 1)" offset="1"></stop></linearGradient><linearGradient x1="0%" y1="100%" x2="0%" y2="0%" id="SvgjsLinearGradient1168"><stop stop-color="rgba(22, 67, 88, 0)" offset="0"></stop><stop stop-color="rgba(22, 67, 88, 1)" offset="1"></stop></linearGradient><linearGradient x1="0%" y1="100%" x2="0%" y2="0%" id="SvgjsLinearGradient1169"><stop stop-color="rgba(0, 0, 0, 0)" offset="0"></stop><stop stop-color="rgba(0, 0, 0, 1)" offset="1"></stop></linearGradient></defs></svg>