<svg xmlns="http://www.w3.org/2000/svg" version="1.1" xmlns:xlink="http://www.w3.org/1999/xlink" xmlns:svgjs="http://svgjs.dev/svgjs" width="1440" height="560" preserveAspectRatio="none" viewBox="0 0 1440 560"><g mask="url(&quot;#SvgjsMask1680&quot;)" fill="none"><rect width="1440" height="560" x="0" y="0" fill="url(&quot;#SvgjsLinearGradient1681&quot;)"></rect><path d="M0 0L472.5 0L0 76.16z" fill="rgba(255, 255, 255, .1)"></path><path d="M0 76.16L472.5 0L686.87 0L0 323.65z" fill="rgba(255, 255, 255, .075)"></path><path d="M0 323.65L686.87 0L930.97 0L0 466.96z" fill="rgba(255, 255, 255, .05)"></path><path d="M0 466.96L930.97 0L1135.68 0L0 527.14z" fill="rgba(255, 255, 255, .025)"></path><path d="M1440 560L1301.91 560L1440 477.87z" fill="rgba(0, 0, 0, .1)"></path><path d="M1440 477.87L1301.91 560L763.4200000000001 560L1440 404.81z" fill="rgba(0, 0, 0, .075)"></path><path d="M1440 404.81L763.42 560L375.55999999999995 560L1440 404.42z" fill="rgba(0, 0, 0, .05)"></path><path d="M1440 404.42L375.55999999999995 560L269.8399999999999 560L1440 390.02000000000004z" fill="rgba(0, 0, 0, .025)"></path></g><defs><mask id="SvgjsMask1680"><rect width="1440" height="560" fill="#ffffff"></rect></mask><linearGradient x1="84.72%" y1="139.29%" x2="15.28%" y2="-39.29%" gradientUnits="userSpaceOnUse" id="SvgjsLinearGradient1681"><stop stop-color="rgba(0, 7, 16, 0.93)" offset="0.72"></stop><stop stop-color="rgba(5, 54, 118, 0.92)" offset="1"></stop></linearGradient></defs></svg>